<?xml version="1.0" encoding="UTF-8" standalone="no"?>
<!-- Created with Inkscape (http://www.inkscape.org/) -->

<svg
   width="62.579815mm"
   height="8.0762587mm"
   viewBox="0 0 62.579815 8.0762587"
   version="1.1"
   id="svg1"
   xml:space="preserve"
   inkscape:version="1.4 (e7c3feb1, 2024-10-09)"
   sodipodi:docname="botao_pix_maquinatudo.svg"
   xmlns:inkscape="http://www.inkscape.org/namespaces/inkscape"
   xmlns:sodipodi="http://sodipodi.sourceforge.net/DTD/sodipodi-0.dtd"
   xmlns="http://www.w3.org/2000/svg"
   xmlns:svg="http://www.w3.org/2000/svg"><sodipodi:namedview
     id="namedview1"
     pagecolor="#ffffff"
     bordercolor="#000000"
     borderopacity="0.25"
     inkscape:showpageshadow="2"
     inkscape:pageopacity="0.0"
     inkscape:pagecheckerboard="0"
     inkscape:deskcolor="#d1d1d1"
     inkscape:document-units="mm"
     inkscape:zoom="2.1533344"
     inkscape:cx="103.09592"
     inkscape:cy="16.48606"
     inkscape:window-width="1440"
     inkscape:window-height="872"
     inkscape:window-x="0"
     inkscape:window-y="28"
     inkscape:window-maximized="0"
     inkscape:current-layer="layer1" /><defs
     id="defs1"><clipPath
       clipPathUnits="userSpaceOnUse"
       id="clipPath10"><path
         d="M 0,283.465 H 566.929 V 0 H 0 Z"
         transform="translate(-222.4873,-145.1707)"
         id="path10" /></clipPath></defs><g
     inkscape:label="Camada 1"
     inkscape:groupmode="layer"
     id="layer1"
     transform="translate(-129.64583,-19.854826)"><rect
       x="129.64583"
       y="19.854826"
       width="62.579815"
       height="8.0762587"
       rx="2.1812208"
       fill="#157f63"
       id="rect1"
       style="fill:#4d4d4d;stroke-width:0.190466" /><g
       id="g2"
       transform="translate(-3.5386584)"><g
         id="g1"
         transform="translate(1.4582851,-13.581972)"><path
           id="rect2"
           style="fill:#ffffff;stroke:#ff7f2a;stroke-width:0.785;stroke-linecap:round;stroke-linejoin:round;stroke-dasharray:none;paint-order:markers stroke fill"
           d="m 137.0067,35.064741 c -0.49013,0 -0.8847,0.394563 -0.8847,0.884701 v 3.050976 c 0,0.490138 0.39457,0.884701 0.8847,0.884701 h 3.03341 c 0.49014,0 0.8847,-0.394563 0.8847,-0.884701 v -0.03101 a 0.3705205,0.3705205 0 0 0 5.2e-4,0 c 1.76635,0 1.76635,-3.31246 0,-3.31246 a 0.3705205,0.3705205 0 0 0 -0.0481,0.0062 c -0.11849,-0.348776 -0.44732,-0.598413 -0.83716,-0.598413 z m 3.91811,1.334803 a 0.3705205,0.3705205 0 0 0 5.2e-4,0 c 0.76144,0 0.76144,1.829862 0,1.829862 a 0.3705205,0.3705205 0 0 0 -5.2e-4,0 z" /><path
           d="m 138.5236,38.549211 c -1.28079,-0.969259 -1.21157,-2.007751 -0.51924,-2.007751 0.38078,0 0.51924,0.311548 0.51924,0.311548 0,0 0.13848,-0.311548 0.51926,-0.311548 0.69233,0 0.76155,1.038492 -0.51926,2.007751 z"
           fill="#e0894a"
           id="path3"
           style="fill:#ff2a7f;stroke-width:0.346164" /></g><text
         x="164.9064"
         y="25.037201"
         text-anchor="middle"
         font-family="system-ui, '-apple-system', 'Segoe UI', Roboto, Helvetica, Arial, sans-serif"
         font-size="4.49792px"
         font-weight="700"
         fill="#ffffff"
         id="text3"
         style="stroke-width:0.264583"><tspan
           style="font-style:normal;font-variant:normal;font-weight:normal;font-stretch:normal;font-family:system-ui, '-apple-system', 'Segoe UI', Roboto, Helvetica, Arial, sans-serif;-inkscape-font-specification:'system-ui, -apple-system, Segoe UI, Roboto, Helvetica, Arial, sans-serif'"
           id="tspan1">Apoie com um Pix</tspan></text><path
         id="path9"
         clip-path="url(#clipPath10)"
         style="fill:#f9f9f9;fill-opacity:1;fill-rule:nonzero;stroke:none"
         transform="matrix(0.02668446,0,0,-0.02668446,190.89518,23.801203)"
         d="M 0,0 C -0.248,5.914 -1.131,11.665 -2.586,17.187 4.925,13.605 7.769,10.164 7.769,8 7.769,5.524 5.069,2.734 0,0 m -169.333,8 c 0,2.102 2.751,5.472 9.991,9.002 -1.413,-5.413 -2.275,-11.045 -2.53,-16.833 -4.868,2.68 -7.461,5.406 -7.461,7.831 m 88.396,19.474 c -18.202,0 -32.955,-14.754 -32.955,-32.952 0,-2.254 0.238,-4.451 0.669,-6.577 -4.468,0.48 -8.707,1.052 -12.707,1.698 -0.345,2.273 -0.526,4.584 -0.526,6.916 0,25.101 20.421,45.524 45.519,45.524 25.099,0 45.519,-20.423 45.519,-45.524 0,-2.344 -0.184,-4.673 -0.537,-6.968 -4.001,-0.64 -8.241,-1.205 -12.708,-1.679 0.436,2.137 0.678,4.345 0.678,6.61 0,18.198 -14.749,32.952 -32.952,32.952 m 0,41.332 c 39.835,0 72.242,-32.412 72.242,-72.247 0,-0.115 -0.006,-0.229 -0.006,-0.344 -5.031,-1.81 -11.136,-3.508 -18.206,-4.972 0.172,1.762 0.262,3.535 0.262,5.316 0,29.94 -24.357,54.297 -54.292,54.297 -29.937,0 -54.292,-24.357 -54.292,-54.297 0,-1.76 0.089,-3.511 0.255,-5.249 -7.082,1.479 -13.19,3.193 -18.205,5.018 0,0.077 -0.005,0.154 -0.005,0.231 0,39.835 32.41,72.247 72.247,72.247 m 74.18,-39.252 -0.085,-0.246 c -12.603,28.405 -41.07,48.271 -74.095,48.271 -32.991,0 -61.436,-19.823 -74.059,-48.182 l -0.128,-0.023 -0.804,-0.216 C -171.396,23.562 -179.239,16.442 -179.239,8 c 0,-20.761 49.531,-31.623 98.458,-31.623 48.928,0 98.46,10.862 98.46,31.623 0,8.654 -8.225,15.907 -24.436,21.554 m -52.241451,-59.617398 c -7.054,-0.485 -14.36,-0.733 -21.788,-0.733 -7.544,0 -14.962,0.256 -22.121999,0.757 5.833999,-5.217 13.523999,-8.394 21.971999,-8.394 8.428,0 16.108,3.167 21.938,8.37 m 48.506251,8.151397 c -0.015,-0.064 -0.034,-0.128 -0.048,-0.192 -0.901,-0.225 -1.818,-0.387 -2.765,-0.653 -7.18,-2.05 -15.297,-3.736 -24.061,-5.028 -8.535,-15.254 -24.848,-25.562 -43.57,-25.562 -18.747,0 -35.069,10.337 -43.595,25.616 -8.637,1.287 -16.634,2.949 -23.726,4.974 -0.382,0.109 -0.754,0.209 -1.129,0.313 -0.001,0.004 -0.002,0.008 -0.003,0.012 l -11.747,3.999 c 1.64,-7.262 4.505,-14.732 8.277,-21.815 -5.248,-5.136 -6.189,-13.453 -1.844,-19.667 l 0.209,-0.291 c 4.579,-6.544 13.49,-8.199 20.288,-4.255 0.768,-0.681 1.543,-1.35 2.33,-1.988 10.377,-8.396 22.714,-14.048 35.743,-16.544 1.848,-6.343 7.632,-11.024 14.56,-11.024 h 0.36 c 7.004,0 12.892,4.517 14.697,10.873 13.291,2.414 25.89,8.116 36.462,16.657 0.619,0.5 1.221,1.031 1.824,1.558 6.669,-3.315 15.016,-1.54 19.3999997,4.723 l 0.203,0.291 c 4.19,5.981 3.474,13.913 -1.261,19.08 3.587,7.016 6.29,14.444 7.951,21.751 z m -175.05908,18.4710984 c 0,-57.6830004 46.93,-104.6099974 104.615,-104.6099974 57.682,0 104.61,46.926997 104.61,104.6099974 0,57.6829996 -46.928,104.6150026 -104.61,104.6150026 -57.685,0 -104.615,-46.932003 -104.615,-104.6150026 m 217.998,0 c 0,-62.5190004 -50.862,-113.3829974 -113.383,-113.3829974 -62.522,0 -113.388,50.863997 -113.388,113.3829974 0,62.5209996 50.866,113.3880026 113.388,113.3880026 62.521,0 113.383,-50.867003 113.383,-113.3880026"
         inkscape:export-filename="Logobranco.png"
         inkscape:export-xdpi="47.625137"
         inkscape:export-ydpi="47.625137" /></g></g></svg>
