<?xml version="1.0" encoding="UTF-8" standalone="no"?>
<!-- Created with Inkscape (http://www.inkscape.org/) -->

<svg
   width="79.999771mm"
   height="79.999771mm"
   viewBox="0 0 79.999771 79.999771"
   version="1.1"
   id="svg1"
   xml:space="preserve"
   inkscape:version="1.4 (e7c3feb1, 2024-10-09)"
   sodipodi:docname="Logomaquina.svg"
   xmlns:inkscape="http://www.inkscape.org/namespaces/inkscape"
   xmlns:sodipodi="http://sodipodi.sourceforge.net/DTD/sodipodi-0.dtd"
   xmlns="http://www.w3.org/2000/svg"
   xmlns:svg="http://www.w3.org/2000/svg"><sodipodi:namedview
     id="namedview1"
     pagecolor="#ffffff"
     bordercolor="#000000"
     borderopacity="0.25"
     inkscape:showpageshadow="2"
     inkscape:pageopacity="0.0"
     inkscape:pagecheckerboard="0"
     inkscape:deskcolor="#d1d1d1"
     inkscape:document-units="mm"
     inkscape:zoom="0.43952938"
     inkscape:cx="-18.201286"
     inkscape:cy="242.30462"
     inkscape:window-width="1440"
     inkscape:window-height="900"
     inkscape:window-x="0"
     inkscape:window-y="0"
     inkscape:window-maximized="0"
     inkscape:current-layer="layer-MC0"><inkscape:page
       x="8.2903064e-08"
       y="0"
       width="79.999771"
       height="79.999771"
       id="page1"
       margin="0"
       bleed="0" /><inkscape:page
       x="81.2659"
       y="-1.8059082"
       width="79.999771"
       height="79.999771"
       id="page2"
       margin="0"
       bleed="0" /></sodipodi:namedview><defs
     id="defs1"><clipPath
       clipPathUnits="userSpaceOnUse"
       id="clipPath4"><path
         d="M 0,283.465 H 566.929 V 0 H 0 Z"
         transform="translate(-36.936001,-141.7298)"
         id="path4" /></clipPath><clipPath
       clipPathUnits="userSpaceOnUse"
       id="clipPath6"><path
         d="M 0,283.465 H 566.929 V 0 H 0 Z"
         transform="translate(-211.9951,-123.2587)"
         id="path6" /></clipPath><clipPath
       clipPathUnits="userSpaceOnUse"
       id="clipPath8"><path
         d="M 0,283.465 H 566.929 V 0 H 0 Z"
         transform="translate(-163.48881,-115.10731)"
         id="path8" /></clipPath><clipPath
       clipPathUnits="userSpaceOnUse"
       id="clipPath10"><path
         d="M 0,283.465 H 566.929 V 0 H 0 Z"
         transform="translate(-222.4873,-145.1707)"
         id="path10" /></clipPath><clipPath
       clipPathUnits="userSpaceOnUse"
       id="clipPath12"><path
         d="M 0,283.465 H 566.929 V 0 H 0 Z"
         transform="translate(-320.40041,-141.7298)"
         id="path12" /></clipPath><clipPath
       clipPathUnits="userSpaceOnUse"
       id="clipPath14"><path
         d="M 0,283.465 H 566.929 V 0 H 0 Z"
         transform="translate(-495.45951,-123.2587)"
         id="path14" /></clipPath><clipPath
       clipPathUnits="userSpaceOnUse"
       id="clipPath16"><path
         d="M 0,283.465 H 566.929 V 0 H 0 Z"
         transform="translate(-446.95361,-115.10731)"
         id="path16" /></clipPath><clipPath
       clipPathUnits="userSpaceOnUse"
       id="clipPath18"><path
         d="M 0,283.465 H 566.929 V 0 H 0 Z"
         transform="translate(-505.95211,-145.1707)"
         id="path18" /></clipPath></defs><g
     inkscape:label="Camada 1"
     inkscape:groupmode="layer"
     id="layer1"
     transform="translate(-146.41919,-14.065143)" /><g
     id="layer-MC0"
     inkscape:groupmode="layer"
     inkscape:label="Camada 1"
     transform="matrix(0.26458333,0,0,0.26458334,73.580816,-14.065143)"><path
       id="path9"
       clip-path="url(#clipPath10)"
       style="fill:#2f364f;fill-opacity:1;fill-rule:nonzero;stroke:none"
       transform="matrix(1.3333333,0,0,-1.3333333,-19.001699,199.75572)"
       d="M 0,0 C -0.248,5.914 -1.131,11.665 -2.586,17.187 4.925,13.605 7.769,10.164 7.769,8 7.769,5.524 5.069,2.734 0,0 m -169.333,8 c 0,2.102 2.751,5.472 9.991,9.002 -1.413,-5.413 -2.275,-11.045 -2.53,-16.833 -4.868,2.68 -7.461,5.406 -7.461,7.831 m 88.396,19.474 c -18.202,0 -32.955,-14.754 -32.955,-32.952 0,-2.254 0.238,-4.451 0.669,-6.577 -4.468,0.48 -8.707,1.052 -12.707,1.698 -0.345,2.273 -0.526,4.584 -0.526,6.916 0,25.101 20.421,45.524 45.519,45.524 25.099,0 45.519,-20.423 45.519,-45.524 0,-2.344 -0.184,-4.673 -0.537,-6.968 -4.001,-0.64 -8.241,-1.205 -12.708,-1.679 0.436,2.137 0.678,4.345 0.678,6.61 0,18.198 -14.749,32.952 -32.952,32.952 m 0,41.332 c 39.835,0 72.242,-32.412 72.242,-72.247 0,-0.115 -0.006,-0.229 -0.006,-0.344 -5.031,-1.81 -11.136,-3.508 -18.206,-4.972 0.172,1.762 0.262,3.535 0.262,5.316 0,29.94 -24.357,54.297 -54.292,54.297 -29.937,0 -54.292,-24.357 -54.292,-54.297 0,-1.76 0.089,-3.511 0.255,-5.249 -7.082,1.479 -13.19,3.193 -18.205,5.018 0,0.077 -0.005,0.154 -0.005,0.231 0,39.835 32.41,72.247 72.247,72.247 m 74.18,-39.252 -0.085,-0.246 c -12.603,28.405 -41.07,48.271 -74.095,48.271 -32.991,0 -61.436,-19.823 -74.059,-48.182 l -0.128,-0.023 -0.804,-0.216 C -171.396,23.562 -179.239,16.442 -179.239,8 c 0,-20.761 49.531,-31.623 98.458,-31.623 48.928,0 98.46,10.862 98.46,31.623 0,8.654 -8.225,15.907 -24.436,21.554 m -52.241451,-59.617398 c -7.054,-0.485 -14.36,-0.733 -21.788,-0.733 -7.544,0 -14.962,0.256 -22.121999,0.757 5.833999,-5.217 13.523999,-8.394 21.971999,-8.394 8.428,0 16.108,3.167 21.938,8.37 m 48.506251,8.151397 c -0.015,-0.064 -0.034,-0.128 -0.048,-0.192 -0.901,-0.225 -1.818,-0.387 -2.765,-0.653 -7.18,-2.05 -15.297,-3.736 -24.061,-5.028 -8.535,-15.254 -24.848,-25.562 -43.57,-25.562 -18.747,0 -35.069,10.337 -43.595,25.616 -8.637,1.287 -16.634,2.949 -23.726,4.974 -0.382,0.109 -0.754,0.209 -1.129,0.313 -0.001,0.004 -0.002,0.008 -0.003,0.012 l -11.747,3.999 c 1.64,-7.262 4.505,-14.732 8.277,-21.815 -5.248,-5.136 -6.189,-13.453 -1.844,-19.667 l 0.209,-0.291 c 4.579,-6.544 13.49,-8.199 20.288,-4.255 0.768,-0.681 1.543,-1.35 2.33,-1.988 10.377,-8.396 22.714,-14.048 35.743,-16.544 1.848,-6.343 7.632,-11.024 14.56,-11.024 h 0.36 c 7.004,0 12.892,4.517 14.697,10.873 13.291,2.414 25.89,8.116 36.462,16.657 0.619,0.5 1.221,1.031 1.824,1.558 6.669,-3.315 15.016,-1.54 19.3999997,4.723 l 0.203,0.291 c 4.19,5.981 3.474,13.913 -1.261,19.08 3.587,7.016 6.29,14.444 7.951,21.751 z m -175.05908,18.4710984 c 0,-57.6830004 46.93,-104.6099974 104.615,-104.6099974 57.682,0 104.61,46.926997 104.61,104.6099974 0,57.6829996 -46.928,104.6150026 -104.61,104.6150026 -57.685,0 -104.615,-46.932003 -104.615,-104.6150026 m 217.998,0 c 0,-62.5190004 -50.862,-113.3829974 -113.383,-113.3829974 -62.522,0 -113.388,50.863997 -113.388,113.3829974 0,62.5209996 50.866,113.3880026 113.388,113.3880026 62.521,0 113.383,-50.867003 113.383,-113.3880026" /></g></svg>
